<svg width="16" height="16" viewBox="0 0 16 16" fill="none" xmlns="http://www.w3.org/2000/svg">
<path fill-rule="evenodd" clip-rule="evenodd" d="M5 15C5.55228 15 6 14.5523 6 14C6 13.4477 5.55228 13 5 13C4.44772 13 4 13.4477 4 14C4 14.5523 4.44772 15 5 15ZM12 15C12.5523 15 13 14.5523 13 14C13 13.4477 12.5523 13 12 13C11.4477 13 11 13.4477 11 14C11 14.5523 11.4477 15 12 15ZM2.91 3.49992H14C14.1541 3.49613 14.3013 3.56361 14.399 3.6828C14.4967 3.802 14.534 3.95959 14.5 4.10992L13.5 8.60992C13.4476 8.8425 13.2383 9.00574 13 8.99992H4L4.41 10.9999H13V11.9999H4C3.75862 12.0048 3.54824 11.8365 3.5 11.5999L1.59 1.99992H0V0.99992H2C2.24138 0.995052 2.45176 1.16336 2.5 1.39992L2.91 3.49992ZM3.81 7.99992H12.6L13.375 4.49992H3.11L3.81 7.99992Z" fill="#697077"/>
</svg>
