<svg width="16" height="16" viewBox="0 0 16 16" fill="none" xmlns="http://www.w3.org/2000/svg">
<path fill-rule="evenodd" clip-rule="evenodd" d="M5 6C5 5.17157 4.32843 4.5 3.5 4.5H1V11.5H3.5C4.32843 11.5 5 10.8284 5 10V9C4.99779 8.62997 4.85889 8.27382 4.61 8C4.85889 7.72618 4.99779 7.37003 5 7V6ZM2 5.5H3.5C3.77614 5.5 4 5.72386 4 6V7C4 7.27614 3.77614 7.5 3.5 7.5H2V5.5ZM4 10C4 10.2761 3.77614 10.5 3.5 10.5H2V8.5H3.5C3.77614 8.5 4 8.72386 4 9V10ZM9 11.5H7C6.44772 11.5 6 11.0523 6 10.5V4.5H7V10.5H9V4.5H10V10.5C10 11.0523 9.55229 11.5 9 11.5ZM14 4.5H15L13.5 8.5V11.5H12.5V8.5L11 4.5H12L13 7.5L14 4.5Z" fill="#697077"/>
</svg>
